<?xml version="1.0" standalone="no"?>
<!DOCTYPE svg PUBLIC "-//W3C//DTD SVG 20010904//EN"
 "http://www.w3.org/TR/2001/REC-SVG-20010904/DTD/svg10.dtd">
<svg version="1.0" xmlns="http://www.w3.org/2000/svg"
 width="500.000000pt" height="500.000000pt" viewBox="0 0 500.000000 500.000000"
 preserveAspectRatio="xMidYMid meet">
<metadata>
Created by potrace 1.14, written by Peter Selinger 2001-2017
</metadata>
<g transform="translate(0.000000,500.000000) scale(0.100000,-0.100000)"
fill="#000000" stroke="none">
<path d="M744 4779 c-68 -8 -164 -51 -164 -73 0 -14 121 -71 318 -150 151 -61
186 -83 274 -173 63 -66 128 -150 128 -167 0 -3 -28 -24 -62 -47 -83 -56 -165
-123 -208 -171 -31 -34 -44 -41 -106 -53 -148 -28 -263 -93 -369 -208 -138
-148 -191 -344 -154 -566 23 -137 128 -298 254 -391 42 -31 54 -47 63 -82 19
-72 86 -199 144 -272 141 -175 361 -293 637 -340 107 -19 294 -36 394 -36 37
0 67 -3 67 -6 0 -4 -10 -22 -21 -41 -17 -28 -26 -33 -43 -28 -50 16 -281 17
-364 1 -349 -67 -635 -360 -697 -713 -50 -284 27 -549 220 -761 103 -113 208
-182 359 -237 321 -116 686 -34 925 208 143 145 240 346 256 530 l8 79 46 -45
c114 -109 237 -174 398 -206 121 -25 181 -26 299 -6 116 20 192 46 300 101
119 61 164 94 270 200 130 131 193 259 210 428 7 71 12 82 97 218 23 38 64
105 91 150 28 46 74 120 103 166 29 45 53 85 53 87 0 2 24 42 53 87 102 158
101 162 -19 57 -59 -52 -160 -139 -223 -194 -64 -55 -135 -118 -159 -139 -61
-56 -82 -70 -82 -54 0 8 -36 53 -81 101 -57 62 -75 87 -62 87 28 0 126 82 189
157 31 38 72 102 92 143 30 64 35 86 36 150 1 65 -3 82 -27 122 -33 57 -62 81
-135 109 -98 38 -315 26 -463 -27 -22 -7 -39 -10 -39 -6 0 4 10 36 22 72 18
55 21 90 22 225 1 180 -7 221 -63 329 -44 85 -117 161 -190 195 -48 22 -70 26
-147 26 -75 0 -96 -3 -112 -18 -20 -18 -20 -17 -41 37 -59 159 -190 338 -327
446 -127 101 -289 178 -462 220 l-93 23 28 29 c74 79 184 137 333 177 318 85
340 93 340 114 -1 22 -74 65 -149 87 -60 19 -88 22 -155 17 -44 -3 -101 -14
-126 -23 -116 -46 -284 -197 -354 -317 l-39 -67 -158 0 c-192 0 -323 -23 -480
-85 -12 -5 -21 8 -39 57 -44 121 -100 208 -197 305 -143 143 -249 184 -419
162z m136 -968 c0 -6 -4 -13 -10 -16 -15 -9 -105 -202 -129 -275 -47 -146 -62
-240 -68 -430 l-6 -184 -43 47 c-88 97 -140 249 -131 377 15 201 123 365 300
457 65 33 87 39 87 24z m381 -46 c109 -39 188 -133 240 -286 30 -88 32 -103
32 -231 0 -131 -1 -140 -29 -195 -73 -147 -274 -281 -425 -283 -59 0 -145 110
-195 250 -38 106 -45 290 -16 407 27 105 62 179 114 238 88 100 182 134 279
100z m1087 -14 c105 -54 190 -169 237 -324 24 -78 31 -285 12 -374 -20 -94
-62 -177 -118 -235 -44 -47 -47 -48 -105 -48 -107 1 -223 40 -310 106 -43 32
-86 113 -115 214 -35 126 -33 303 4 415 44 132 121 224 220 262 43 17 126 9
175 -16z"/>
<path d="M1185 3648 c-190 -104 -220 -501 -50 -657 139 -128 310 -17 346 225
14 99 1 218 -32 290 -26 53 -83 120 -120 139 -33 17 -115 19 -144 3z m169
-109 c61 -28 57 -118 -6 -151 -41 -21 -62 -18 -102 13 -37 29 -37 99 0 128 30
23 70 27 108 10z m54 -171 c17 -17 15 -43 -4 -59 -31 -26 -70 25 -44 56 15 18
32 19 48 3z"/>
<path d="M2260 3659 c-72 -21 -136 -112 -161 -229 -29 -133 17 -317 102 -414
79 -90 193 -97 267 -17 65 70 92 151 92 276 -1 247 -143 429 -300 384z m164
-118 c74 -64 5 -182 -89 -151 -40 13 -55 35 -55 80 0 43 16 69 52 85 35 14 64
10 92 -14z m54 -153 c30 -30 -4 -77 -41 -57 -20 11 -23 55 -4 62 21 9 32 8 45
-5z"/>
</g>
</svg>
