<?xml version="1.0" encoding="UTF-8"?>
<!DOCTYPE svg PUBLIC "-//W3C//DTD SVG 1.1//EN" "http://www.w3.org/Graphics/SVG/1.1/DTD/svg11.dtd">
<svg xmlns="http://www.w3.org/2000/svg" version="1.1" width="1080px" height="1080px" style="shape-rendering:geometricPrecision; text-rendering:geometricPrecision; image-rendering:optimizeQuality; fill-rule:evenodd; clip-rule:evenodd" xmlns:xlink="http://www.w3.org/1999/xlink">
<g><path style="opacity:0.969" fill="#ffffff" d="M 563.5,215.5 C 582.424,223.606 593.257,237.939 596,258.5C 596.414,258.957 596.914,259.291 597.5,259.5C 598.791,257.903 600.291,256.57 602,255.5C 604.657,257.43 607.323,259.43 610,261.5C 615.129,255.856 619.629,249.856 623.5,243.5C 625.581,235.707 627.248,227.707 628.5,219.5C 632.254,221.748 635.588,224.581 638.5,228C 639.437,228.692 640.103,228.525 640.5,227.5C 653.469,238.633 666.302,249.966 679,261.5C 679.72,263.112 679.554,264.612 678.5,266C 669.893,267.567 661.559,269.9 653.5,273C 648.825,277.51 644.491,282.343 640.5,287.5C 647.157,293.831 653.824,300.165 660.5,306.5C 660.062,306.435 659.728,306.601 659.5,307C 661.5,309 663.5,311 665.5,313C 664.001,313.838 663.668,314.671 664.5,315.5C 661.471,318.859 658.471,322.192 655.5,325.5C 655.565,325.062 655.399,324.728 655,324.5C 635.704,346.798 616.037,368.798 596,390.5C 595.308,391.437 595.475,392.103 596.5,392.5C 592.725,396.533 589.058,400.7 585.5,405C 588.771,407.537 590.771,410.87 591.5,415C 590.852,418.989 588.519,421.156 584.5,421.5C 586.427,416.293 584.76,413.126 579.5,412C 577.5,414 575.5,416 573.5,418C 572.167,418.667 570.833,418.667 569.5,418C 557.687,407.365 545.854,396.865 534,386.5C 532.523,387.444 531.523,388.777 531,390.5C 530.667,392.833 530.333,395.167 530,397.5C 529.261,398.574 528.261,399.241 527,399.5C 520.01,396.958 512.844,394.791 505.5,393C 504.426,392.261 503.759,391.261 503.5,390C 505.024,388.806 506.19,387.306 507,385.5C 510.065,383.717 513.232,382.05 516.5,380.5C 517.833,378.833 519.167,377.167 520.5,375.5C 520,375.167 519.5,374.833 519,374.5C 496.873,384.948 477.873,380.948 462,362.5C 459.67,358.334 457.837,354.001 456.5,349.5C 456.5,342.167 456.5,334.833 456.5,327.5C 461.003,311.425 471.337,301.425 487.5,297.5C 492.067,298.029 496.734,298.363 501.5,298.5C 502.833,298.167 504.167,297.833 505.5,297.5C 506.653,296.313 506.653,295.313 505.5,294.5C 502.265,288.813 499.599,282.813 497.5,276.5C 496.244,267.182 496.244,257.849 497.5,248.5C 499.297,244.229 501.13,239.896 503,235.5C 504.039,234.29 505.206,233.29 506.5,232.5C 509.886,230.16 512.22,227.493 513.5,224.5C 518.655,219.872 524.655,216.538 531.5,214.5C 531.735,215.097 532.235,215.43 533,215.5C 542.753,212.774 552.42,213.107 562,216.5C 562.765,216.43 563.265,216.097 563.5,215.5 Z M 536.5,284.5 C 534.981,283.59 533.315,282.757 531.5,282C 527.913,279.24 525.246,275.74 523.5,271.5C 519.964,265.39 519.964,259.39 523.5,253.5C 523.893,251.716 524.559,250.05 525.5,248.5C 538.274,235.228 551.108,235.228 564,248.5C 568.733,258.097 568.566,267.597 563.5,277C 556.02,284.622 547.02,287.122 536.5,284.5 Z M 645.5,311.5 C 648.709,312.013 649.709,313.68 648.5,316.5C 645.167,318.252 643.501,317.252 643.5,313.5C 644.5,313.167 645.167,312.5 645.5,311.5 Z M 536.5,312.5 C 540.534,312.672 544.534,313.172 548.5,314C 545.587,317.595 542.587,321.262 539.5,325C 538.552,325.483 537.552,325.649 536.5,325.5C 536.045,322.797 535.378,320.13 534.5,317.5C 534.902,315.7 535.569,314.033 536.5,312.5 Z M 499.5,318.5 C 501.277,319.6 503.277,320.434 505.5,321C 507.703,323.372 510.037,325.539 512.5,327.5C 512.844,331.053 513.511,334.553 514.5,338C 513.574,341.541 512.574,345.041 511.5,348.5C 508.833,349.167 507.167,350.833 506.5,353.5C 499.425,356.326 492.425,356.16 485.5,353C 483.582,350.269 481.582,347.769 479.5,345.5C 479.068,344.29 478.401,343.29 477.5,342.5C 477.246,337.03 477.913,331.696 479.5,326.5C 482.25,325.256 484.583,323.423 486.5,321C 490.632,319.1 494.966,318.267 499.5,318.5 Z"/></g>
<g><path style="opacity:0.333" fill="#121212" d="M 563.5,215.5 C 563.265,216.097 562.765,216.43 562,216.5C 552.42,213.107 542.753,212.774 533,215.5C 532.235,215.43 531.735,215.097 531.5,214.5C 542.262,211.673 552.929,212.006 563.5,215.5 Z"/></g>
<g><path style="opacity:0.115" fill="#131313" d="M 628.5,219.5 C 629.721,218.535 631.054,218.702 632.5,220C 635.062,222.733 637.729,225.233 640.5,227.5C 640.103,228.525 639.437,228.692 638.5,228C 635.588,224.581 632.254,221.748 628.5,219.5 Z"/></g>
<g><path style="opacity:0.086" fill="#121212" d="M 513.5,224.5 C 512.22,227.493 509.886,230.16 506.5,232.5C 508.094,229.236 510.427,226.569 513.5,224.5 Z"/></g>
<g><path style="opacity:0.127" fill="#171717" d="M 628.5,219.5 C 627.248,227.707 625.581,235.707 623.5,243.5C 624.01,236.274 625.01,229.108 626.5,222C 626.684,220.624 627.351,219.791 628.5,219.5 Z"/></g>
<g><path style="opacity:0.795" fill="#070707" d="M 543.5,246.5 C 548.886,245.427 551.719,247.427 552,252.5C 549.382,256.822 546.048,257.488 542,254.5C 541.109,251.502 541.609,248.836 543.5,246.5 Z"/></g>
<g><path style="opacity:0.155" fill="#171717" d="M 525.5,248.5 C 524.559,250.05 523.893,251.716 523.5,253.5C 522.371,251.334 522.871,249.334 525,247.5C 525.399,247.728 525.565,248.062 525.5,248.5 Z"/></g>
<g><path style="opacity:0.851" fill="#050505" d="M 535.5,250.5 C 537.502,254.87 536.502,258.203 532.5,260.5C 531.178,260.67 530.011,260.337 529,259.5C 528.107,256.084 528.607,252.917 530.5,250C 532.387,249.22 534.054,249.387 535.5,250.5 Z"/></g>
<g><path style="opacity:0.082" fill="#141414" d="M 535.5,250.5 C 538.946,253.176 539.279,256.343 536.5,260C 535.207,260.49 533.873,260.657 532.5,260.5C 536.502,258.203 537.502,254.87 535.5,250.5 Z"/></g>
<g><path style="opacity:0.803" fill="#050505" d="M 554.5,255.5 C 561.214,256.179 563.214,259.679 560.5,266C 557.571,266.777 554.737,266.61 552,265.5C 549.701,261.362 550.535,258.028 554.5,255.5 Z"/></g>
<g><path style="opacity:0.124" fill="#111111" d="M 497.5,248.5 C 496.244,257.849 496.244,267.182 497.5,276.5C 494.877,267.173 494.877,257.84 497.5,248.5 Z"/></g>
<g><path style="opacity:0.847" fill="#ffffff" d="M 531.5,265.5 C 531.842,264.662 532.508,264.328 533.5,264.5C 537.222,265.391 538.722,267.724 538,271.5C 537.196,272.804 536.029,273.471 534.5,273.5C 532.823,272.813 531.156,272.146 529.5,271.5C 529.5,271.167 529.5,270.833 529.5,270.5C 530.601,269.152 531.601,267.652 532.5,266C 532.272,265.601 531.938,265.435 531.5,265.5 Z"/></g>
<g><path style="opacity:0.241" fill="#171717" d="M 531.5,265.5 C 531.938,265.435 532.272,265.601 532.5,266C 531.601,267.652 530.601,269.152 529.5,270.5C 529.12,268.302 529.787,266.635 531.5,265.5 Z"/></g>
<g><path style="opacity:0.854" fill="#040404" d="M 545.5,268.5 C 553.266,268.141 555.599,271.641 552.5,279C 549.77,279.728 547.103,279.562 544.5,278.5C 543.221,274.97 543.554,271.637 545.5,268.5 Z"/></g>
<g><path style="opacity:0.188" fill="#121212" d="M 533.5,264.5 C 538.325,264.488 540.491,266.821 540,271.5C 536.377,275.478 532.877,275.478 529.5,271.5C 531.156,272.146 532.823,272.813 534.5,273.5C 536.029,273.471 537.196,272.804 538,271.5C 538.722,267.724 537.222,265.391 533.5,264.5 Z"/></g>
<g><path style="opacity:0.148" fill="#101010" d="M 523.5,271.5 C 525.246,275.74 527.913,279.24 531.5,282C 533.315,282.757 534.981,283.59 536.5,284.5C 536.44,285.043 536.107,285.376 535.5,285.5C 529.682,282.849 525.349,278.682 522.5,273C 522.57,272.235 522.903,271.735 523.5,271.5 Z"/></g>
<g><path style="opacity:0.301" fill="#0d0d0d" d="M 505.5,294.5 C 506.653,295.313 506.653,296.313 505.5,297.5C 504.167,297.833 502.833,298.167 501.5,298.5C 496.734,298.363 492.067,298.029 487.5,297.5C 493.118,296.758 498.785,296.258 504.5,296C 505.056,295.617 505.389,295.117 505.5,294.5 Z"/></g>
<g><path style="opacity:0.128" fill="#121212" d="M 660.5,306.5 C 664.561,307.715 666.394,310.381 666,314.5C 665.617,315.056 665.117,315.389 664.5,315.5C 663.668,314.671 664.001,313.838 665.5,313C 663.5,311 661.5,309 659.5,307C 659.728,306.601 660.062,306.435 660.5,306.5 Z"/></g>
<g><path style="opacity:0.224" fill="#101010" d="M 643.5,313.5 C 643.501,317.252 645.167,318.252 648.5,316.5C 649.709,313.68 648.709,312.013 645.5,311.5C 645.062,311.565 644.728,311.399 644.5,311C 647.994,310.139 650.327,311.472 651.5,315C 649.725,318.903 647.058,319.903 643.5,318C 642.185,315.711 642.185,314.211 643.5,313.5 Z"/></g>
<g><path style="opacity:0.059" fill="#101010" d="M 499.5,318.5 C 494.966,318.267 490.632,319.1 486.5,321C 484.583,323.423 482.25,325.256 479.5,326.5C 482.81,320.586 487.977,317.586 495,317.5C 496.707,317.508 498.207,317.842 499.5,318.5 Z"/></g>
<g><path style="opacity:0.348" fill="#101010" d="M 483.5,326.5 C 490.179,326.169 492.179,329.169 489.5,335.5C 485.224,337.362 482.558,336.029 481.5,331.5C 482.187,329.823 482.854,328.156 483.5,326.5 Z"/></g>
<g><path style="opacity:0.856" fill="#ffffff" d="M 484.5,328.5 C 489.159,328.015 490.492,329.848 488.5,334C 483.728,334.81 482.395,332.977 484.5,328.5 Z"/></g>
<g><path style="opacity:0.176" fill="#101010" d="M 494.5,323.5 C 501.303,322.735 503.303,325.568 500.5,332C 496.202,333.46 493.202,332.126 491.5,328C 492.883,326.729 493.883,325.229 494.5,323.5 Z"/></g>
<g><path style="opacity:0.82" fill="#ffffff" d="M 496.5,324.5 C 501.2,326.289 501.534,328.622 497.5,331.5C 493.865,329.678 493.531,327.344 496.5,324.5 Z"/></g>
<g><path style="opacity:0.883" fill="#010101" d="M 656.5,335.5 C 657.496,335.414 658.329,335.748 659,336.5C 659.667,338.167 659.667,339.833 659,341.5C 642.586,358.594 626.753,376.428 611.5,395C 609.356,396.146 607.523,397.646 606,399.5C 602.14,397.838 599.307,395.171 597.5,391.5C 600.394,390.118 602.894,388.118 605,385.5C 620.432,367.645 636.098,349.979 652,332.5C 653.129,334.141 654.629,335.141 656.5,335.5 Z"/></g>
<g><path style="opacity:0.829" fill="#ffffff" d="M 508.5,338.5 C 508.5,339.167 508.167,339.5 507.5,339.5C 503.323,340.158 501.823,338.492 503,334.5C 506.741,332.965 508.574,334.299 508.5,338.5 Z"/></g>
<g><path style="opacity:0.215" fill="#131313" d="M 456.5,327.5 C 456.5,334.833 456.5,342.167 456.5,349.5C 453.864,342.263 453.864,334.93 456.5,327.5 Z"/></g>
<g><path style="opacity:0.136" fill="#0d0d0d" d="M 508.5,338.5 C 508.574,334.299 506.741,332.965 503,334.5C 501.823,338.492 503.323,340.158 507.5,339.5C 507.38,340.586 506.713,341.253 505.5,341.5C 500.606,340.016 499.44,337.016 502,332.5C 507.897,330.669 510.064,332.669 508.5,338.5 Z"/></g>
<g><path style="opacity:0.061" fill="#151515" d="M 479.5,326.5 C 477.913,331.696 477.246,337.03 477.5,342.5C 477.631,343.239 477.464,343.906 477,344.5C 475.566,340.594 475.233,336.594 476,332.5C 476.424,329.975 477.59,327.975 479.5,326.5 Z"/></g>
<g><path style="opacity:0.137" fill="#0e0e0e" d="M 512.5,327.5 C 515.828,333.134 516.328,339.134 514,345.5C 513.623,346.942 512.79,347.942 511.5,348.5C 512.574,345.041 513.574,341.541 514.5,338C 513.511,334.553 512.844,331.053 512.5,327.5 Z"/></g>
<g><path style="opacity:0.823" fill="#010101" d="M 485.5,347.5 C 484.094,347.027 483.427,346.027 483.5,344.5C 484.126,342.374 485.459,340.707 487.5,339.5C 490.329,340.825 490.996,342.825 489.5,345.5C 488.28,346.711 487.113,346.711 486,345.5C 485.536,346.094 485.369,346.761 485.5,347.5 Z"/></g>
<g><path style="opacity:0.306" fill="#121212" d="M 485.5,347.5 C 485.369,346.761 485.536,346.094 486,345.5C 487.113,346.711 488.28,346.711 489.5,345.5C 490.996,342.825 490.329,340.825 487.5,339.5C 485.459,340.707 484.126,342.374 483.5,344.5C 482.288,342.736 482.621,341.07 484.5,339.5C 490.664,337.762 492.831,340.096 491,346.5C 489.301,347.406 487.467,347.739 485.5,347.5 Z"/></g>
<g><path style="opacity:0.768" fill="#020202" d="M 499.5,342.5 C 500.496,342.414 501.329,342.748 502,343.5C 502.402,344.872 502.902,346.205 503.5,347.5C 503.376,348.107 503.043,348.44 502.5,348.5C 502.565,348.062 502.399,347.728 502,347.5C 500.386,350.825 498.386,351.158 496,348.5C 495.651,345.669 496.817,343.669 499.5,342.5 Z"/></g>
<g><path style="opacity:0.205" fill="#101010" d="M 499.5,342.5 C 496.817,343.669 495.651,345.669 496,348.5C 498.386,351.158 500.386,350.825 502,347.5C 502.399,347.728 502.565,348.062 502.5,348.5C 500.973,352.401 498.64,353.067 495.5,350.5C 494.353,348.235 494.186,345.902 495,343.5C 496.356,342.62 497.856,342.286 499.5,342.5 Z"/></g>
<g><path style="opacity:0.318" fill="#191919" d="M 767.5,352.5 C 760.839,349.834 754.172,349.834 747.5,352.5C 747.577,351.25 748.244,350.417 749.5,350C 754.833,348 760.167,348 765.5,350C 766.756,350.417 767.423,351.25 767.5,352.5 Z"/></g>
<g><path style="opacity:0.977" fill="#ffffff" d="M 767.5,352.5 C 768.583,352.539 769.583,352.873 770.5,353.5C 772.351,355.781 774.018,358.115 775.5,360.5C 775.497,426.846 775.497,493.18 775.5,559.5C 773.589,564.413 770.255,568.08 765.5,570.5C 761.047,570.438 756.381,570.271 751.5,570C 750.054,568.702 748.721,568.535 747.5,569.5C 746.662,569.158 746.328,568.492 746.5,567.5C 744.614,566.07 742.947,564.403 741.5,562.5C 739.415,560.316 738.415,557.649 738.5,554.5C 739.833,491.833 739.833,429.167 738.5,366.5C 738.232,364.901 738.566,363.568 739.5,362.5C 741.697,358.762 744.364,355.429 747.5,352.5C 754.172,349.834 760.839,349.834 767.5,352.5 Z"/></g>
<g><path style="opacity:0.231" fill="#1a1a1a" d="M 747.5,352.5 C 744.364,355.429 741.697,358.762 739.5,362.5C 739.596,357.074 742.263,353.741 747.5,352.5 Z"/></g>
<g><path style="opacity:0.259" fill="#101010" d="M 479.5,345.5 C 481.582,347.769 483.582,350.269 485.5,353C 492.425,356.16 499.425,356.326 506.5,353.5C 505.025,355.41 503.025,356.576 500.5,357C 490.18,358.68 482.513,355.014 477.5,346C 478.094,345.536 478.761,345.369 479.5,345.5 Z"/></g>
<g><path style="opacity:0.113" fill="#101010" d="M 655.5,325.5 C 654.406,327.857 652.739,329.69 650.5,331C 653.818,330.825 655.818,332.325 656.5,335.5C 654.629,335.141 653.129,334.141 652,332.5C 636.098,349.979 620.432,367.645 605,385.5C 602.894,388.118 600.394,390.118 597.5,391.5C 596.833,391.5 596.5,391.833 596.5,392.5C 595.475,392.103 595.308,391.437 596,390.5C 616.037,368.798 635.704,346.798 655,324.5C 655.399,324.728 655.565,325.062 655.5,325.5 Z"/></g>
<g><path style="opacity:0.188" fill="#0f0f0f" d="M 371.5,361.5 C 337.351,361.402 303.018,361.569 268.5,362C 267.234,362.309 266.067,362.809 265,363.5C 264.601,363.272 264.435,362.938 264.5,362.5C 264.918,361.778 265.584,361.278 266.5,361C 301.529,360.187 336.529,360.353 371.5,361.5 Z"/></g>
<g><path style="opacity:0.964" fill="#ffffff" d="M 371.5,361.5 C 402.295,371.177 418.295,392.343 419.5,425C 419.668,435.829 417.168,445.996 412,455.5C 406.556,463.87 400.056,471.37 392.5,478C 394.985,480.814 397.819,483.314 401,485.5C 402.497,489.165 404.497,492.498 407,495.5C 408.338,499.564 409.672,503.564 411,507.5C 411.896,516.902 413.23,526.236 415,535.5C 418.667,539.167 422.333,542.833 426,546.5C 430.776,559.246 426.943,567.746 414.5,572C 406.058,572.973 398.391,570.973 391.5,566C 389.667,562.833 387.167,560.333 384,558.5C 375.933,544.661 372.267,529.661 373,513.5C 370.946,504.281 365.446,498.614 356.5,496.5C 355.319,495.603 353.319,495.103 350.5,495C 330.825,494.167 311.158,494.334 291.5,495.5C 291.624,496.107 291.957,496.44 292.5,496.5C 292.667,517.836 292.5,539.169 292,560.5C 291.449,564.545 289.282,567.212 285.5,568.5C 284.078,568.709 282.745,569.209 281.5,570C 276.619,570.271 271.953,570.438 267.5,570.5C 265.145,568.662 262.479,567.162 259.5,566C 258.778,564.249 257.778,562.749 256.5,561.5C 256.162,559.146 255.662,556.813 255,554.5C 254.333,495.167 254.333,435.833 255,376.5C 255.303,374.112 256.137,371.945 257.5,370C 257.272,369.601 256.938,369.435 256.5,369.5C 258.569,366.427 261.236,364.094 264.5,362.5C 264.435,362.938 264.601,363.272 265,363.5C 266.067,362.809 267.234,362.309 268.5,362C 303.018,361.569 337.351,361.402 371.5,361.5 Z M 292.5,397.5 C 315.502,397.333 338.502,397.5 361.5,398C 373.086,404.492 378.753,414.492 378.5,428C 377.917,440.495 373.25,451.162 364.5,460C 362.913,460.862 361.246,461.529 359.5,462C 337.5,462.667 315.5,462.667 293.5,462C 292.506,440.575 292.173,419.075 292.5,397.5 Z"/></g>
<g><path style="opacity:0.131" fill="#0f0f0f" d="M 256.5,369.5 C 256.938,369.435 257.272,369.601 257.5,370C 256.137,371.945 255.303,374.112 255,376.5C 254.333,435.833 254.333,495.167 255,554.5C 255.662,556.813 256.162,559.146 256.5,561.5C 254.933,560.319 254.099,558.653 254,556.5C 253.333,496.167 253.333,435.833 254,375.5C 254.24,373.148 255.073,371.148 256.5,369.5 Z"/></g>
<g><path style="opacity:0.282" fill="#111111" d="M 512.5,407.5 C 509.101,408.82 505.601,408.82 502,407.5C 495.823,408.231 489.656,409.231 483.5,410.5C 482.893,410.376 482.56,410.043 482.5,409.5C 492.242,406.662 502.242,405.995 512.5,407.5 Z"/></g>
<g><path style="opacity:0.959" fill="#ffffff" d="M 512.5,407.5 C 540.104,413.264 559.937,428.931 572,454.5C 572.89,458.332 574.056,461.999 575.5,465.5C 574.957,465.56 574.624,465.893 574.5,466.5C 575.154,468.115 575.654,469.782 576,471.5C 576.5,478.492 576.666,485.492 576.5,492.5C 575.167,493.833 575.167,495.167 576.5,496.5C 574.189,497.914 572.189,499.747 570.5,502C 569.167,502.333 567.833,502.667 566.5,503C 532.5,503.333 498.5,503.667 464.5,504C 462.789,505.133 462.289,506.633 463,508.5C 473.842,533.175 492.675,543.008 519.5,538C 526.839,536.997 533.505,534.33 539.5,530C 548.322,524.881 556.655,525.381 564.5,531.5C 568.323,538.727 568.49,546.06 565,553.5C 562.5,554.667 560.667,556.5 559.5,559C 552.789,563.689 545.455,567.356 537.5,570C 527.435,572.43 517.268,574.263 507,575.5C 478.82,574.868 455.987,563.868 438.5,542.5C 431.075,531.225 426.408,518.892 424.5,505.5C 425.034,493.934 426.034,482.268 427.5,470.5C 427.457,469.584 427.124,468.917 426.5,468.5C 434.223,438.443 452.89,418.777 482.5,409.5C 482.56,410.043 482.893,410.376 483.5,410.5C 489.656,409.231 495.823,408.231 502,407.5C 505.601,408.82 509.101,408.82 512.5,407.5 Z M 537.5,472.5 C 512.513,471.916 487.513,471.916 462.5,472.5C 465.492,458.629 473.492,449.129 486.5,444C 506.614,438.555 522.781,444.055 535,460.5C 536.783,464.298 537.616,468.298 537.5,472.5 Z"/></g>
<g><path style="opacity:0.965" fill="#ffffff" d="M 669.5,408.5 C 673.43,408.635 676.764,409.968 679.5,412.5C 682.515,414.674 685.849,416.341 689.5,417.5C 704.916,426.086 716.416,438.419 724,454.5C 725.318,458.971 726.818,463.304 728.5,467.5C 727.876,467.917 727.543,468.584 727.5,469.5C 729.117,477.637 729.784,485.637 729.5,493.5C 727.5,495.833 725.5,498.167 723.5,500.5C 723.44,499.957 723.107,499.624 722.5,499.5C 721.099,500.521 719.765,501.521 718.5,502.5C 684.331,503.167 649.998,503.833 615.5,504.5C 614.572,505.768 614.405,507.101 615,508.5C 621.2,524.037 632.367,533.87 648.5,538C 655.826,538.5 663.159,538.666 670.5,538.5C 674.102,539.208 677.769,538.708 681.5,537C 686.241,534.576 690.241,532.076 693.5,529.5C 696.686,527.838 700.186,526.838 704,526.5C 706.295,526.547 708.129,527.213 709.5,528.5C 711.355,529.69 713.188,531.023 715,532.5C 715.399,532.272 715.565,531.938 715.5,531.5C 716.906,531.973 717.573,532.973 717.5,534.5C 717.062,534.435 716.728,534.601 716.5,535C 718.478,538.933 718.978,543.1 718,547.5C 716.807,549.886 715.64,552.22 714.5,554.5C 713.386,555.885 712.386,557.385 711.5,559C 704.789,563.689 697.455,567.356 689.5,570C 680.621,572.382 671.621,574.049 662.5,575C 626.354,576.19 599.854,561.023 583,529.5C 578.256,519.039 576.089,508.039 576.5,496.5C 575.167,495.167 575.167,493.833 576.5,492.5C 577.206,483.712 578.539,474.879 580.5,466C 580.43,465.235 580.097,464.735 579.5,464.5C 588.585,435.748 607.585,417.082 636.5,408.5C 647.646,407.867 658.646,407.867 669.5,408.5 Z M 688.5,465.5 C 689.219,467.764 689.552,470.097 689.5,472.5C 664.614,471.774 639.614,471.774 614.5,472.5C 620.732,449.829 635.732,439.996 659.5,443C 673.808,444.837 683.475,452.337 688.5,465.5 Z"/></g>
<g><path style="opacity:0.373" fill="#121212" d="M 669.5,408.5 C 658.646,407.867 647.646,407.867 636.5,408.5C 647.544,405.929 658.544,405.929 669.5,408.5 Z"/></g>
<g><path style="opacity:0.133" fill="#141414" d="M 679.5,412.5 C 680.873,412.343 682.207,412.51 683.5,413C 686.014,413.881 688.014,415.381 689.5,417.5C 685.849,416.341 682.515,414.674 679.5,412.5 Z"/></g>
<g><path style="opacity:0.152" fill="#191919" d="M 775.5,360.5 C 776.831,426.931 776.831,493.264 775.5,559.5C 775.497,493.18 775.497,426.846 775.5,360.5 Z"/></g>
<g><path style="opacity:0.106" fill="#141414" d="M 579.5,464.5 C 580.097,464.735 580.43,465.235 580.5,466C 578.539,474.879 577.206,483.712 576.5,492.5C 576.666,485.492 576.5,478.492 576,471.5C 575.654,469.782 575.154,468.115 574.5,466.5C 574.624,465.893 574.957,465.56 575.5,465.5C 576.163,467.042 576.83,468.709 577.5,470.5C 578.295,468.505 578.961,466.505 579.5,464.5 Z"/></g>
<g><path style="opacity:0.276" fill="#161616" d="M 537.5,472.5 C 513.137,473.826 488.137,473.826 462.5,472.5C 487.513,471.916 512.513,471.916 537.5,472.5 Z"/></g>
<g><path style="opacity:0.241" fill="#161616" d="M 688.5,465.5 C 690.154,467.56 691.154,470.06 691.5,473C 664.457,473.825 638.79,473.658 614.5,472.5C 639.614,471.774 664.614,471.774 689.5,472.5C 689.552,470.097 689.219,467.764 688.5,465.5 Z"/></g>
<g><path style="opacity:0.114" fill="#121212" d="M 728.5,467.5 C 730.519,476.116 730.853,484.783 729.5,493.5C 729.784,485.637 729.117,477.637 727.5,469.5C 727.543,468.584 727.876,467.917 728.5,467.5 Z"/></g>
<g><path style="opacity:0.203" fill="#141414" d="M 356.5,496.5 C 335.167,496.5 313.833,496.5 292.5,496.5C 291.957,496.44 291.624,496.107 291.5,495.5C 311.158,494.334 330.825,494.167 350.5,495C 353.319,495.103 355.319,495.603 356.5,496.5 Z"/></g>
<g><path style="opacity:0.253" fill="#0d0d0d" d="M 426.5,468.5 C 427.124,468.917 427.457,469.584 427.5,470.5C 426.034,482.268 425.034,493.934 424.5,505.5C 424.02,493.067 424.687,480.734 426.5,468.5 Z"/></g>
<g><path style="opacity:0.031" fill="#181818" d="M 723.5,500.5 C 722.22,501.931 720.553,502.598 718.5,502.5C 719.765,501.521 721.099,500.521 722.5,499.5C 723.107,499.624 723.44,499.957 723.5,500.5 Z"/></g>
<g><path style="opacity:0.137" fill="#0e0e0e" d="M 738.5,366.5 C 739.833,429.167 739.833,491.833 738.5,554.5C 737.167,491.833 737.167,429.167 738.5,366.5 Z"/></g>
<g><path style="opacity:0.18" fill="#1b1b1b" d="M 709.5,528.5 C 712.089,528.461 714.089,529.461 715.5,531.5C 715.565,531.938 715.399,532.272 715,532.5C 713.188,531.023 711.355,529.69 709.5,528.5 Z"/></g>
<g><path style="opacity:0.167" fill="#0f0f0f" d="M 693.5,529.5 C 690.241,532.076 686.241,534.576 681.5,537C 677.769,538.708 674.102,539.208 670.5,538.5C 673.778,537.609 677.111,536.776 680.5,536C 684.619,533.274 688.952,531.107 693.5,529.5 Z"/></g>
<g><path style="opacity:0.205" fill="#171717" d="M 717.5,534.5 C 718.222,534.918 718.722,535.584 719,536.5C 720.037,542.394 719.371,548.061 717,553.5C 716.329,554.252 715.496,554.586 714.5,554.5C 715.64,552.22 716.807,549.886 718,547.5C 718.978,543.1 718.478,538.933 716.5,535C 716.728,534.601 717.062,534.435 717.5,534.5 Z"/></g>
<g><path style="opacity:0.2" fill="#161616" d="M 741.5,562.5 C 742.947,564.403 744.614,566.07 746.5,567.5C 743.167,567.5 741.5,565.833 741.5,562.5 Z"/></g>
<g><path style="opacity:0.239" fill="#141414" d="M 285.5,568.5 C 285.423,569.75 284.756,570.583 283.5,571C 278.115,571.733 272.782,571.567 267.5,570.5C 271.953,570.438 276.619,570.271 281.5,570C 282.745,569.209 284.078,568.709 285.5,568.5 Z"/></g>
<g><path style="opacity:0.22" fill="#171717" d="M 765.5,570.5 C 759.333,572.808 753.333,572.475 747.5,569.5C 748.721,568.535 750.054,568.702 751.5,570C 756.381,570.271 761.047,570.438 765.5,570.5 Z"/></g>
<g><path style="opacity:0.972" fill="#ffffff" d="M 632.5,587.5 C 641.025,589.253 646.525,594.253 649,602.5C 649.667,676.5 649.667,750.5 649,824.5C 648.87,828.452 647.036,831.119 643.5,832.5C 641.46,834.177 639.46,835.844 637.5,837.5C 629.72,841.616 622.053,841.116 614.5,836C 612.768,834.028 611.435,831.861 610.5,829.5C 609.229,826.657 608.396,823.657 608,820.5C 607.333,749.5 607.333,678.5 608,607.5C 608.147,604.429 608.98,601.596 610.5,599C 610.272,598.601 609.938,598.435 609.5,598.5C 609.5,597.833 609.833,597.5 610.5,597.5C 616.418,590.871 623.751,587.538 632.5,587.5 Z"/></g>
<g><path style="opacity:0.349" fill="#0d0d0d" d="M 632.5,587.5 C 623.751,587.538 616.418,590.871 610.5,597.5C 615.294,589.102 622.628,585.769 632.5,587.5 Z"/></g>
<g><path style="opacity:0.978" fill="#ffffff" d="M 701.5,590.5 C 705.236,591.905 707.569,594.571 708.5,598.5C 708.892,600.179 709.392,601.846 710,603.5C 710.333,646.833 710.667,690.167 711,733.5C 711.5,733 712,732.5 712.5,732C 711.176,726.734 711.176,721.567 712.5,716.5C 712.334,720.846 712.501,725.179 713,729.5C 724.082,718.912 735.249,708.579 746.5,698.5C 752.797,693.871 758.463,688.538 763.5,682.5C 763.987,681.527 764.487,680.527 765,679.5C 768.519,676.384 772.019,673.384 775.5,670.5C 779.94,667.237 784.273,663.737 788.5,660C 791.628,659.159 794.628,658.325 797.5,657.5C 800.941,657.301 804.274,657.801 807.5,659C 813.332,663.503 816.999,669.337 818.5,676.5C 818.318,679.226 817.818,681.893 817,684.5C 811.901,690.602 806.401,696.436 800.5,702C 786.845,713.53 773.679,725.363 761,737.5C 760.333,738.5 760.333,739.5 761,740.5C 762.512,741.257 763.846,742.257 765,743.5C 766.365,746.662 768.198,749.329 770.5,751.5C 772.766,755.436 775.766,758.769 779.5,761.5C 781.144,761.81 782.144,762.81 782.5,764.5C 786.098,769.274 789.931,773.94 794,778.5C 796.333,780.833 798.667,783.167 801,785.5C 801.399,785.272 801.565,784.938 801.5,784.5C 806.838,790.8 812.671,796.8 819,802.5C 819.41,803.901 819.91,805.234 820.5,806.5C 824.446,814.231 824.446,821.898 820.5,829.5C 820.5,830.167 820.167,830.5 819.5,830.5C 817.142,832.529 814.808,834.529 812.5,836.5C 809.88,838.895 806.713,839.895 803,839.5C 798.35,839.412 794.183,838.078 790.5,835.5C 790.938,835.565 791.272,835.399 791.5,835C 790.756,833.961 789.756,833.461 788.5,833.5C 787.833,832.5 787.167,831.5 786.5,830.5C 785.758,828.65 784.758,827.984 783.5,828.5C 764.443,809.598 745.61,789.931 727,769.5C 722.901,774.108 718.401,778.108 713.5,781.5C 712.671,780.668 711.838,781.001 711,782.5C 710.808,796.699 710.308,810.866 709.5,825C 709.57,825.765 709.903,826.265 710.5,826.5C 710.573,828.027 709.906,829.027 708.5,829.5C 706.194,831.136 703.86,833.469 701.5,836.5C 699.574,838.293 697.241,839.293 694.5,839.5C 691.833,838.167 689.167,838.167 686.5,839.5C 684.302,839.88 682.635,839.213 681.5,837.5C 674.709,833.373 670.709,827.373 669.5,819.5C 669.167,746.665 669.501,673.998 670.5,601.5C 678.062,589.205 688.396,585.538 701.5,590.5 Z"/></g>
<g><path style="opacity:0.167" fill="#111111" d="M 701.5,590.5 C 688.396,585.538 678.062,589.205 670.5,601.5C 671.56,597.052 673.893,593.386 677.5,590.5C 683.535,587.662 689.868,586.829 696.5,588C 698.653,588.099 700.319,588.933 701.5,590.5 Z"/></g>
<g><path style="opacity:0.069" fill="#0f0f0f" d="M 247.5,600.5 C 298.834,600.333 350.168,600.5 401.5,601C 403.167,601.333 404.833,601.667 406.5,602C 407.756,602.417 408.423,603.25 408.5,604.5C 407.078,604.291 405.745,603.791 404.5,603C 386.503,602.5 368.503,602.333 350.5,602.5C 316.167,601.833 281.833,601.167 247.5,600.5 Z"/></g>
<g><path style="opacity:0.371" fill="#161616" d="M 247.5,600.5 C 281.833,601.167 316.167,601.833 350.5,602.5C 313.832,602.333 277.165,602.5 240.5,603C 239.255,603.791 237.922,604.291 236.5,604.5C 236.577,603.25 237.244,602.417 238.5,602C 241.513,601.498 244.513,600.998 247.5,600.5 Z"/></g>
<g><path style="opacity:0.975" fill="#ffffff" d="M 350.5,602.5 C 368.503,602.333 386.503,602.5 404.5,603C 405.745,603.791 407.078,604.291 408.5,604.5C 412.67,605.826 415.837,608.492 418,612.5C 422.581,626.62 418.081,636.286 404.5,641.5C 384.701,641.432 364.701,641.432 344.5,641.5C 344.168,702.002 344.501,762.336 345.5,822.5C 342.227,833.984 334.56,839.984 322.5,840.5C 310.346,839.954 302.679,833.954 299.5,822.5C 300.499,762.336 300.832,702.002 300.5,641.5C 281.83,641.667 263.164,641.5 244.5,641C 242.444,640.689 240.444,640.189 238.5,639.5C 237.893,639.624 237.56,639.957 237.5,640.5C 224.967,632.702 222.3,622.368 229.5,609.5C 231.749,608.92 233.415,607.587 234.5,605.5C 234.842,604.662 235.508,604.328 236.5,604.5C 237.922,604.291 239.255,603.791 240.5,603C 277.165,602.5 313.832,602.333 350.5,602.5 Z"/></g>
<g><path style="opacity:0.247" fill="#181818" d="M 234.5,605.5 C 233.415,607.587 231.749,608.92 229.5,609.5C 230.585,607.413 232.251,606.08 234.5,605.5 Z"/></g>
<g><path style="opacity:0.259" fill="#131313" d="M 708.5,598.5 C 709.458,598.953 710.292,599.619 711,600.5C 711.333,602.5 711.667,604.5 712,606.5C 712.5,643.165 712.667,679.832 712.5,716.5C 711.176,721.567 711.176,726.734 712.5,732C 712,732.5 711.5,733 711,733.5C 710.667,690.167 710.333,646.833 710,603.5C 709.392,601.846 708.892,600.179 708.5,598.5 Z"/></g>
<g><path style="opacity:0.108" fill="#0b0b0b" d="M 237.5,640.5 C 237.56,639.957 237.893,639.624 238.5,639.5C 240.444,640.189 242.444,640.689 244.5,641C 263.164,641.5 281.83,641.667 300.5,641.5C 300.832,702.002 300.499,762.336 299.5,822.5C 299.5,762.5 299.5,702.5 299.5,642.5C 280.497,642.667 261.497,642.5 242.5,642C 240.753,641.648 239.086,641.148 237.5,640.5 Z"/></g>
<g><path style="opacity:0.102" fill="#090909" d="M 404.5,641.5 C 385.2,642.463 365.867,642.796 346.5,642.5C 346.207,702.37 345.874,762.37 345.5,822.5C 344.501,762.336 344.168,702.002 344.5,641.5C 364.701,641.432 384.701,641.432 404.5,641.5 Z"/></g>
<g><path style="opacity:0.157" fill="#0f0f0f" d="M 510.5,654.5 C 500.167,654.5 489.833,654.5 479.5,654.5C 489.833,653.167 500.167,653.167 510.5,654.5 Z"/></g>
<g><path style="opacity:0.967" fill="#ffffff" d="M 587.5,663.5 C 587.062,663.435 586.728,663.601 586.5,664C 587.717,665.648 588.55,667.481 589,669.5C 589.667,720.833 589.667,772.167 589,823.5C 588.443,825.615 587.609,827.615 586.5,829.5C 586.624,830.107 586.957,830.44 587.5,830.5C 578.538,841.231 567.872,843.064 555.5,836C 552.419,832.514 550.085,828.68 548.5,824.5C 549.622,822.712 549.789,820.712 549,818.5C 547.5,820 546,821.5 544.5,823C 545.094,823.464 545.761,823.631 546.5,823.5C 515.297,848.26 482.63,849.926 448.5,828.5C 446.909,826.367 444.909,824.701 442.5,823.5C 441.614,822.675 441.281,821.675 441.5,820.5C 437.93,820.099 435.764,818.099 435,814.5C 433.488,813.743 432.154,812.743 431,811.5C 419.614,795.306 413.114,777.306 411.5,757.5C 412.551,745.946 413.884,734.28 415.5,722.5C 415.457,721.584 415.124,720.917 414.5,720.5C 421.23,694.117 436.23,674.284 459.5,661C 466.096,658.52 472.763,656.353 479.5,654.5C 489.833,654.5 500.167,654.5 510.5,654.5C 517.101,656.655 523.768,658.822 530.5,661C 536.282,664.414 541.948,667.914 547.5,671.5C 552.47,655.18 563.137,649.68 579.5,655C 583.07,657.068 585.737,659.901 587.5,663.5 Z M 455.5,769.5 C 452.865,755.496 452.865,741.496 455.5,727.5C 460.653,715.179 468.653,705.179 479.5,697.5C 511.801,686.628 534.134,696.795 546.5,728C 553.487,754.158 547.487,776.491 528.5,795C 523.877,798.663 518.544,800.996 512.5,802C 494.127,805.762 478.627,800.928 466,787.5C 462.03,781.738 458.53,775.738 455.5,769.5 Z"/></g>
<g><path style="opacity:0.184" fill="#101010" d="M 797.5,657.5 C 794.628,658.325 791.628,659.159 788.5,660C 784.273,663.737 779.94,667.237 775.5,670.5C 777.885,667.13 780.552,663.963 783.5,661C 787.752,658.307 792.418,657.141 797.5,657.5 Z"/></g>
<g><path style="opacity:0.221" fill="#0f0f0f" d="M 763.5,682.5 C 758.463,688.538 752.797,693.871 746.5,698.5C 750.567,692.925 755.234,687.759 760.5,683C 761.448,682.517 762.448,682.351 763.5,682.5 Z"/></g>
<g><path style="opacity:0.175" fill="#111111" d="M 609.5,598.5 C 609.938,598.435 610.272,598.601 610.5,599C 608.98,601.596 608.147,604.429 608,607.5C 607.333,678.5 607.333,749.5 608,820.5C 608.396,823.657 609.229,826.657 610.5,829.5C 608.386,828.64 607.22,826.973 607,824.5C 606.333,751.167 606.333,677.833 607,604.5C 607.037,602.026 607.87,600.026 609.5,598.5 Z"/></g>
<g><path style="opacity:0.059" fill="#0f0f0f" d="M 414.5,720.5 C 415.124,720.917 415.457,721.584 415.5,722.5C 413.884,734.28 412.551,745.946 411.5,757.5C 411.343,745.047 412.343,732.714 414.5,720.5 Z"/></g>
<g><path style="opacity:0.209" fill="#0d0d0d" d="M 455.5,727.5 C 452.865,741.496 452.865,755.496 455.5,769.5C 451.507,758.198 450.673,746.531 453,734.5C 453.39,731.896 454.224,729.562 455.5,727.5 Z"/></g>
<g><path style="opacity:0.296" fill="#181818" d="M 587.5,663.5 C 588.966,664.347 589.8,665.68 590,667.5C 590.667,720.167 590.667,772.833 590,825.5C 589.626,827.491 588.793,829.158 587.5,830.5C 586.957,830.44 586.624,830.107 586.5,829.5C 587.609,827.615 588.443,825.615 589,823.5C 589.667,772.167 589.667,720.833 589,669.5C 588.55,667.481 587.717,665.648 586.5,664C 586.728,663.601 587.062,663.435 587.5,663.5 Z"/></g>
<g><path style="opacity:0.216" fill="#151515" d="M 770.5,751.5 C 774.884,753.61 777.884,756.943 779.5,761.5C 775.766,758.769 772.766,755.436 770.5,751.5 Z"/></g>
<g><path style="opacity:0.208" fill="#0f0f0f" d="M 782.5,764.5 C 789.536,770.535 795.869,777.202 801.5,784.5C 801.565,784.938 801.399,785.272 801,785.5C 798.667,783.167 796.333,780.833 794,778.5C 789.931,773.94 786.098,769.274 782.5,764.5 Z"/></g>
<g><path style="opacity:0.114" fill="#181818" d="M 713.5,781.5 C 712.685,794.425 712.185,807.425 712,820.5C 711.809,822.708 711.309,824.708 710.5,826.5C 709.903,826.265 709.57,825.765 709.5,825C 710.308,810.866 710.808,796.699 711,782.5C 711.838,781.001 712.671,780.668 713.5,781.5 Z"/></g>
<g><path style="opacity:0.152" fill="#181818" d="M 820.5,806.5 C 823.858,809.429 825.192,813.262 824.5,818C 824.507,821.258 824.007,824.425 823,827.5C 822.583,828.756 821.75,829.423 820.5,829.5C 824.446,821.898 824.446,814.231 820.5,806.5 Z"/></g>
<g><path style="opacity:0.127" fill="#141414" d="M 548.5,824.5 C 548.591,822.302 547.925,821.969 546.5,823.5C 545.761,823.631 545.094,823.464 544.5,823C 546,821.5 547.5,820 549,818.5C 549.789,820.712 549.622,822.712 548.5,824.5 Z"/></g>
<g><path style="opacity:0.031" fill="#1d1d1d" d="M 786.5,830.5 C 784.973,830.573 783.973,829.906 783.5,828.5C 784.758,827.984 785.758,828.65 786.5,830.5 Z"/></g>
<g><path style="opacity:0.163" fill="#141414" d="M 669.5,819.5 C 670.709,827.373 674.709,833.373 681.5,837.5C 676.742,836.586 673.242,833.919 671,829.5C 669.957,826.243 669.457,822.91 669.5,819.5 Z"/></g>
<g><path style="opacity:0.027" fill="#191919" d="M 819.5,830.5 C 818.637,834.113 816.303,836.113 812.5,836.5C 814.808,834.529 817.142,832.529 819.5,830.5 Z"/></g>
<g><path style="opacity:0.135" fill="#1a1a1a" d="M 643.5,832.5 C 642.712,835.621 640.712,837.288 637.5,837.5C 639.46,835.844 641.46,834.177 643.5,832.5 Z"/></g>
<g><path style="opacity:0.151" fill="#161616" d="M 708.5,829.5 C 707.719,833.404 705.385,835.737 701.5,836.5C 703.86,833.469 706.194,831.136 708.5,829.5 Z"/></g>
<g><path style="opacity:0.114" fill="#1d1d1d" d="M 788.5,833.5 C 789.756,833.461 790.756,833.961 791.5,835C 791.272,835.399 790.938,835.565 790.5,835.5C 789.5,835.167 788.833,834.5 788.5,833.5 Z"/></g>
<g><path style="opacity:0.129" fill="#121212" d="M 694.5,839.5 C 691.833,840.833 689.167,840.833 686.5,839.5C 689.167,838.167 691.833,838.167 694.5,839.5 Z"/></g>
</svg>
